<svg width="16" height="11" viewBox="0 0 16 11" fill="none" xmlns="http://www.w3.org/2000/svg">
<path d="M10.4688 9.78125C10.3125 9.65625 10.25 9.46875 10.25 9.25C10.25 9.0625 10.3125 8.875 10.4688 8.75L13.4375 5.75H0.75C0.3125 5.75 0 5.4375 0 5C0 4.59375 0.3125 4.25 0.75 4.25H13.4375L10.4688 1.28125C10.1562 1 10.1562 0.53125 10.4688 0.25C10.75 -0.0625 11.2188 -0.0625 11.5312 0.25L15.7812 4.5C16.0625 4.78125 16.0625 5.25 15.7812 5.53125L11.5312 9.78125C11.2188 10.0938 10.75 10.0938 10.4688 9.78125Z" fill="black"/>
</svg>
