<svg width="44" height="29" viewBox="0 0 44 29" fill="none" xmlns="http://www.w3.org/2000/svg">
<path d="M22.3414 16.9756C24.9558 16.9756 27.1219 14.8841 27.1219 12.1951C27.1219 9.58079 24.9558 7.41463 22.3414 7.41463C22.2668 7.41463 22.1921 7.48932 22.1174 7.48932C22.1921 7.7881 22.3414 8.31097 22.3414 8.68445C22.3414 10.6265 20.6982 12.2698 18.7561 12.2698C18.3826 12.2698 17.8597 12.1204 17.561 12.0457C17.561 12.1204 17.561 12.1951 17.561 12.1951C17.561 14.8841 19.6524 16.9756 22.3414 16.9756ZM43.5549 13.5396C39.5213 5.62195 31.4543 0.243896 22.3414 0.243896C13.1539 0.243896 5.08688 5.62195 1.05334 13.5396C0.903949 13.8384 0.829254 14.2866 0.829254 14.6601C0.829254 14.9588 0.903949 15.407 1.05334 15.7058C5.08688 23.6235 13.1539 28.9268 22.3414 28.9268C31.4543 28.9268 39.5213 23.6235 43.5549 15.7058C43.7043 15.407 43.7789 14.9588 43.7789 14.5854C43.7789 14.2866 43.7043 13.8384 43.5549 13.5396ZM22.3414 2.63414C27.5701 2.63414 31.9024 6.96646 31.9024 12.1951C31.9024 17.4985 27.5701 21.7561 22.3414 21.7561C17.0381 21.7561 12.7805 17.4985 12.7805 12.1951C12.7805 6.96646 17.0381 2.70884 22.3414 2.63414ZM22.3414 26.5366C14.2744 26.5366 6.95425 21.9802 3.2195 14.5854C5.01218 11.0747 9.3445 6.74237 12.8552 4.94969C11.2866 6.96646 10.3902 9.50609 10.3902 12.1951C10.3902 18.843 15.6936 24.1463 22.3414 24.1463C28.9146 24.1463 34.2927 18.843 34.2927 12.1951C34.2927 9.50609 33.3216 6.96646 31.753 4.94969C35.2637 6.74237 39.596 11.0747 41.4634 14.5854C37.6539 21.9802 30.3338 26.5366 22.3414 26.5366Z" fill="#222222"/>
</svg>
