<svg width="39" height="39" viewBox="0 0 39 39" fill="none" xmlns="http://www.w3.org/2000/svg">
<path d="M37.8659 36.317H36.0732V30.3414C36.0732 29.7439 35.4756 29.1463 34.8781 29.1463H33.6829V19.5853H35.4756C35.7744 19.5853 36.0732 19.3612 36.0732 18.9878V17.7926C36.0732 17.4939 35.7744 17.1951 35.4756 17.1951H33.6829C33.6829 9.72557 27.8567 3.52588 20.5366 2.92832V1.06094C20.5366 0.762159 20.2378 0.463379 19.939 0.463379H18.7439C18.3704 0.463379 18.1463 0.762159 18.1463 1.06094V2.92832C10.7515 3.52588 5 9.72557 5 17.1951H3.20732C2.83384 17.1951 2.60976 17.4939 2.60976 17.7926V18.9878C2.60976 19.3612 2.83384 19.5853 3.20732 19.5853H5V29.1463H3.80488C3.13262 29.1463 2.60976 29.7439 2.60976 30.3414V36.317H0.817074C0.443598 36.317 0.219513 36.6158 0.219513 36.9146V38.1097C0.219513 38.4832 0.443598 38.7073 0.817074 38.7073H37.8659C38.1646 38.7073 38.4634 38.4832 38.4634 38.1097V36.9146C38.4634 36.6158 38.1646 36.317 37.8659 36.317ZM19.3415 5.24387C25.9146 5.24387 31.2927 10.6219 31.2927 17.1951H7.39025C7.39025 10.6219 12.6936 5.24387 19.3415 5.24387ZM31.2927 19.5853V29.1463H25.3171V19.5853H31.2927ZM22.9268 19.5853V29.1463H15.7561V19.5853H22.9268ZM7.39025 19.5853H13.3659V29.1463H7.39025V19.5853ZM33.6829 36.317H5V31.5366H33.6829V36.317Z" fill="#222222"/>
</svg>
