<svg width="118" height="19" viewBox="0 0 118 19" fill="none" xmlns="http://www.w3.org/2000/svg">
<path d="M0 18H4.32V12.36H10.392C14.712 12.36 17.352 10.2 17.352 6.67199C17.352 3.09599 14.736 0.911987 10.416 0.911987H0V18ZM4.32 9.35999V3.88799H9.456C11.688 3.88799 13.008 4.91999 13.008 6.62399C13.008 8.32799 11.664 9.35999 9.456 9.35999H4.32Z" fill="white"/>
<path d="M26.6014 18.456C29.6254 18.456 32.3854 17.4 33.7054 15.912L31.9054 14.016C30.9214 15 28.9294 15.72 26.8174 15.72C24.4174 15.72 22.4494 14.688 22.0654 12.936H33.3694C33.4654 12.552 33.5134 12.048 33.5134 11.64C33.5134 7.87199 30.4174 5.25599 25.8574 5.25599C21.1774 5.25599 17.9134 7.94399 17.9374 11.76C17.9374 15.72 21.5134 18.456 26.6014 18.456ZM22.0174 10.752C22.2334 9.07199 23.7934 7.91999 25.8094 7.91999C27.8254 7.91999 29.3614 8.95199 29.5054 10.752H22.0174Z" fill="white"/>
<path d="M35.3604 18H39.2724V0.191986H35.3604V18Z" fill="white"/>
<path d="M49.0193 18.456C53.9633 18.456 57.2033 15.84 57.2033 11.856C57.2033 7.87199 53.9633 5.25599 49.0193 5.25599C44.0753 5.25599 40.8592 7.87199 40.8592 11.856C40.8592 15.84 44.0753 18.456 49.0193 18.456ZM49.0193 15.576C46.4273 15.576 44.7472 14.112 44.7472 11.856C44.7472 9.59999 46.4273 8.13599 49.0193 8.13599C51.6353 8.13599 53.3153 9.59999 53.3153 11.856C53.3153 14.112 51.6353 15.576 49.0193 15.576Z" fill="white"/>
<path d="M66.1007 18.456C68.4767 18.456 70.4687 17.496 71.5967 15.744L70.2287 13.56C69.4607 14.808 68.3567 15.504 66.9647 15.504C65.5007 15.504 64.6367 14.64 64.6367 13.128V8.44799H70.9727V5.71199H64.6367V1.46399L60.7007 2.25599V5.71199H57.6287V8.44799H60.7247V13.8C60.7247 16.68 62.7647 18.456 66.1007 18.456Z" fill="white"/>
<path d="M80.9998 18.456C84.0238 18.456 86.7838 17.4 88.1038 15.912L86.3038 14.016C85.3198 15 83.3278 15.72 81.2158 15.72C78.8158 15.72 76.8478 14.688 76.4638 12.936H87.7678C87.8638 12.552 87.9118 12.048 87.9118 11.64C87.9118 7.87199 84.8158 5.25599 80.2558 5.25599C75.5758 5.25599 72.3118 7.94399 72.3358 11.76C72.3358 15.72 75.9118 18.456 80.9998 18.456ZM76.4158 10.752C76.6318 9.07199 78.1918 7.91999 80.2078 7.91999C82.2238 7.91999 83.7598 8.95199 83.9038 10.752H76.4158Z" fill="white"/>
<path d="M96.8629 18.432C100.871 18.432 103.775 16.896 103.775 14.184C103.775 11.904 101.927 10.92 98.4469 10.464L95.8309 10.176C94.2229 9.95999 93.4549 9.64799 93.4549 8.97599C93.4549 8.23199 94.7269 7.70399 96.4069 7.70399C98.2309 7.70399 99.8629 8.39999 100.559 9.43199L102.839 8.15999C101.831 6.43199 99.3589 5.27999 96.5029 5.27999C92.7109 5.27999 90.0469 6.74399 90.0469 9.38399C90.0229 11.544 91.7509 12.528 94.8949 12.888L97.5109 13.176C99.3109 13.392 100.271 13.776 100.271 14.496C100.271 15.336 98.9029 15.888 96.8389 15.888C94.4629 15.888 92.3029 14.976 91.6069 13.632L89.2069 14.856C90.0949 17.088 93.2629 18.432 96.8629 18.432Z" fill="white"/>
<path d="M112.437 18.456C114.813 18.456 116.805 17.496 117.933 15.744L116.565 13.56C115.797 14.808 114.693 15.504 113.301 15.504C111.837 15.504 110.973 14.64 110.973 13.128V8.44799H117.309V5.71199H110.973V1.46399L107.037 2.25599V5.71199H103.965V8.44799H107.061V13.8C107.061 16.68 109.101 18.456 112.437 18.456Z" fill="white"/>
</svg>
