<svg width="39" height="39" viewBox="0 0 39 39" fill="none" xmlns="http://www.w3.org/2000/svg">
<path d="M33.6829 0.463379H5C2.31098 0.463379 0.219513 2.62954 0.219513 5.24387V26.7561C0.219513 29.4451 2.31098 31.5366 5 31.5366H12.1707V37.8109C12.1707 38.4085 12.5442 38.7073 13.0671 38.7073C13.2165 38.7073 13.3659 38.7073 13.5899 38.5579L22.9268 31.5366H33.6829C36.2973 31.5366 38.4634 29.4451 38.4634 26.7561V5.24387C38.4634 2.62954 36.2973 0.463379 33.6829 0.463379ZM36.0732 26.7561C36.0732 28.1006 34.9527 29.1463 33.6829 29.1463H22.1052L21.4329 29.6692L14.561 34.8231V29.1463H5C3.65549 29.1463 2.60976 28.1006 2.60976 26.7561V5.24387C2.60976 3.97405 3.65549 2.85362 5 2.85362H33.6829C34.9527 2.85362 36.0732 3.97405 36.0732 5.24387V26.7561ZM24.9436 18.2408C23.5991 19.8841 21.5076 20.7805 19.3415 20.7805C17.1006 20.7805 15.0838 19.8841 13.6646 18.2408C13.2165 17.718 12.4695 17.6433 11.9466 18.0914C11.4238 18.5396 11.4238 19.2866 11.7973 19.8094C13.6646 21.9756 16.4284 23.1707 19.3415 23.1707C22.1799 23.1707 24.9436 21.9756 26.811 19.8094C27.2591 19.2866 27.1845 18.5396 26.6616 18.0914C26.1387 17.6433 25.3918 17.718 24.9436 18.2408ZM14.561 14.2073C15.532 14.2073 16.3537 13.4603 16.3537 12.4146C16.3537 11.4436 15.532 10.6219 14.561 10.6219C13.5152 10.6219 12.7683 11.4436 12.7683 12.4146C12.7683 13.4603 13.5152 14.2073 14.561 14.2073ZM24.122 14.2073C25.093 14.2073 25.9146 13.4603 25.9146 12.4146C25.9146 11.4436 25.093 10.6219 24.122 10.6219C23.0762 10.6219 22.3293 11.4436 22.3293 12.4146C22.3293 13.4603 23.0762 14.2073 24.122 14.2073Z" fill="#222222"/>
</svg>
